# xmcd
#
# Track frame offsets:
#	150
#	19575
#	37927
#	55800
#	81296
#	95747
#	106774
#	135736
#	153959
#	168672
#	189503
#	215960
#	247467
#	271444
#
# Disc length: 3919 seconds
#
# Revision: 1
# Processed by: cddbd v1.5.2PL0 Copyright (c) Steve Scherf et al.
# Submitted via: EasyCDDAExtractor 16.0.8.2
#
DISCID=c80f4d0e
DTITLE=Δασκαλάκης Μιχάλης - Ο ρεμπέτης Μιχάλης Δασκαλάκης 1
DYEAR=2008
DGENRE=Ρεμπέτικη
TTITLE0=Δασκαλάκης Μιχάλης-Σπυρόπουλος Νίκος - Το δαχτυλίδι [Γιώργος Μητσάκης]
TTITLE1=Δασκαλάκης Μιχάλης-Σπυρόπουλος Νίκος - Το θαμπό φανάρι [Σταύρος Ξαρχάκ
TTITLE1=ος-Λ. Παπαδόπουλος]
TTITLE2=Δασκαλάκης Μιχάλης-Σπυρόπουλος Νίκος - Ο ψαράς μέσα στη χώρα [Γιώργος 
TTITLE2=Μουφλουζέλης]
TTITLE3=Δασκαλάκης Μιχάλης-Σπυρόπουλος Νίκος - Εγώ κακός δεν ήμουνα [Μιχάλης Δ
TTITLE3=ασκαλάκης]
TTITLE4=Δασκαλάκης Μιχάλης - Ναζιάρα Μαριγούλα [Μιχάλης Δασκαλάκης]
TTITLE5=Δασκαλάκης Μιχάλης-Σπυρόπουλος Νίκος - Ο λαγός [Γιώργος Μητσάκης]
TTITLE6=Δασκαλάκης Μιχάλης-Σπυρόπουλος Νίκος - Ο ζητιάνος [Βασίλης Τσιτσάνης]
TTITLE7=Δασκαλάκης Μιχάλης - Άνθρωπέ μου [Απόστολος Καλδάρας]
TTITLE8=Δασκαλάκης Μιχάλης - Θα βρω μουρμούρη μπαγλαμά [Α.Καλδάρας-Ε.Παπαγιανν
TTITLE8=οπούλου]
TTITLE9=Δασκαλάκης Μιχάλης-Σπυρόπουλος Νίκος - Βλάμης απ' το Μιλάνο [Μ. Δασκαλ
TTITLE9=άκης-Ελένη Δασκαλάκη]
TTITLE10=Δασκαλάκης Μιχάλης - Αντιλαλούν οι φυλακές [Μάρκος Βαμβακάρης]
TTITLE11=Δασκαλάκης Μιχάλης - Το Χάρο τον αντάμωσαν (Κουβέντα με το Χάρο)[Παν.
TTITLE11=Τούντας]
TTITLE12=Δασκαλάκης Μιχάλης - Καναβουριές (Βάλτε μου δυό γαριφαλιές)[Μ. Δασκαλ
TTITLE12=άκης]
TTITLE13=Δασκαλάκης Μιχάλης-Σπυρόπουλος Νίκος - Κάφ' τονε Σταύρο, κάφ' τονε [Μ
TTITLE13=άρκος Βαμβακάρης]
EXTD=
EXTT0=
EXTT1=
EXTT2=
EXTT3=
EXTT4=
EXTT5=
EXTT6=
EXTT7=
EXTT8=
EXTT9=
EXTT10=
EXTT11=
EXTT12=
EXTT13=
PLAYORDER=
